<?xml version="1.0" encoding="UTF-8"?><svg id="Calque_2" xmlns="http://www.w3.org/2000/svg" xmlns:xlink="http://www.w3.org/1999/xlink" viewBox="0 0 358.47 350.42"><defs><style>.cls-1{fill:#5fb157;}.cls-2{fill:url(#Dégradé_sans_nom_29);}.cls-3{fill:url(#Dégradé_sans_nom_4);}.cls-4{fill:url(#Dégradé_sans_nom_4-4);}.cls-5{fill:url(#Dégradé_sans_nom_4-3);}.cls-6{fill:url(#Dégradé_sans_nom_4-5);}.cls-7{fill:url(#Dégradé_sans_nom_4-2);}</style><linearGradient id="Dégradé_sans_nom_4" x1="171.11" y1="210.76" x2="179.8" y2="94.29" gradientTransform="translate(342.35 390.7) rotate(-175.1)" gradientUnits="userSpaceOnUse"><stop offset="0" stop-color="#5fb157"/><stop offset="1" stop-color="#a1d5e0"/></linearGradient><linearGradient id="Dégradé_sans_nom_4-2" x1="171.11" y1="210.76" x2="179.8" y2="94.29" gradientTransform="translate(15.55 383.03) rotate(-103.1)" xlink:href="#Dégradé_sans_nom_4"/><linearGradient id="Dégradé_sans_nom_4-3" x1="171.11" y1="210.76" x2="179.8" y2="94.29" gradientTransform="translate(-78.14 69.85) rotate(-31.1)" xlink:href="#Dégradé_sans_nom_4"/><linearGradient id="Dégradé_sans_nom_4-4" x1="171.11" y1="210.76" x2="179.8" y2="94.29" gradientTransform="translate(190.76 -116.03) rotate(40.9)" xlink:href="#Dégradé_sans_nom_4"/><linearGradient id="Dégradé_sans_nom_4-5" x1="171.11" y1="210.76" x2="179.8" y2="94.29" gradientTransform="translate(450.63 82.27) rotate(112.9)" xlink:href="#Dégradé_sans_nom_4"/><radialGradient id="Dégradé_sans_nom_29" cx="125.6" cy="224.59" fx="125.6" fy="233.67" r="50.2" gradientTransform="translate(42.94 -36.78) rotate(-3.4)" gradientUnits="userSpaceOnUse"><stop offset="0" stop-color="#5fb157"/><stop offset=".03" stop-color="#60b15a"/><stop offset=".47" stop-color="#79bd88"/><stop offset=".81" stop-color="#88c4a4"/><stop offset="1" stop-color="#8ec7af"/></radialGradient></defs><g id="Calque_1-2"><path class="cls-3" d="m168.06,350.42l-.6-.87c-22.92-33.13-40.11-69.88-50.84-108.71l-.17-.62h0c40.71-3.46,81.72.06,121.25,10.4h0s-.28.59-.28.59c-17.19,36.44-40.38,69.72-68.61,98.46l-.74.76Z"/><path class="cls-1" d="m237.63,250.76c-22.43-2.64-44.74-4.97-67.26-4.48-7.39.29-14.85.68-21.8,2.36-3.12.78-6.63,1.89-8.99,3.86-4.85,4.77-6.11,11.78-5.59,18.45,1.05,10.81,5.68,21.09,11.6,30.22,3.38,4.86,7.54,11.12,14.31,10,2.99-.49,6.68-1.88,7.37-5.35.69-2.6-1.92-4.58-4.38-4.36,1.25-.21,2.62.04,3.69.84,2.35,1.75,1.65,5.43-.25,7.27-.96,1.03-2.38,1.8-3.46,2.33-8.48,4-15.17-2.53-20.03-8.72-9.23-11.95-17.2-28.45-13.48-43.92,2.77-9.81,8.42-14.27,17.86-16.27,27.25-5.54,63.71.58,90.41,7.76h0Z"/><path class="cls-1" d="m163.56,320.88c3.66-2.04,9.02-2.98,12.04.78,1.66,2.27,2.04,5.1,1.11,7.66-2.18,5.26-9.31,5.26-10.08,11.03-.45,3.24.46,6.78,1.43,10.06-4.75-3.75-7.91-11.19-4.13-16.76,2.07-3.24,5.39-4.25,7.62-6.63,1.83-4.94-4.46-5.39-7.99-6.15h0Z"/><path class="cls-1" d="m163.09,300.74c6.58-3.76,15.15-.88,13.6,7.83-1.05,5.69-7.31,7.43-11.64,9.24-.55.28-.86.52-1.3.88-.67.54-1.12.92-1.06,1.83.28.88,1.55,1.13,2.55,1.43.79.2,1.91.33,2.65.67-3.16.61-6.69,1.73-8.5-2.36-.99-2.7.57-5.55,2.75-7,2.99-2.31,7.69-2.66,9.19-6.03,1.83-4.9-4.51-5.85-8.24-6.49h0Z"/><path class="cls-1" d="m188.88,326.67c2.98-4.46,6.54-11.62,9.27-16.36,2.63-4.9,6.43-11.63,8.95-16.48,2.95-5.45,5.8-11,8.44-16.58,1.63-3.68,3.56-7.52,3.9-11.24.02.06.06.17.2.36.12.17.2.21.19.2-.58-.35-1.42-.61-2.24-.82-14.64-3.02-40.37-2.56-54.25,2.97-5.94,2.31-10.51,6.99-8.15,13.69-2.69-4.59-1.17-10.05,2.92-13.27,10.41-8.34,28.48-10.07,41.49-10.49,6.56-.1,12.86.05,19.41,1.51,1.45.39,2.9.76,4.29,1.74,5.01,3.69-.83,13.56-2.62,17.81-5.66,11.34-12.57,21.95-19.9,32.26-3.78,5.02-7.36,10.34-11.88,14.71h0Z"/><g id="_Répétition_radiale_"><path class="cls-7" d="m0,204.83l.64-.84c24.42-32.04,54.06-59.74,87.68-81.95l.54-.36h0c15.87,37.65,25.19,77.74,27.58,118.53h0s-.64-.08-.64-.08c-39.96-5.09-78.79-16.86-114.85-34.83L0,204.83Z"/><path class="cls-1" d="m116.28,240.19c-4.42-22.15-9.09-44.09-16.53-65.36-2.56-6.94-5.24-13.91-8.98-20-1.71-2.72-3.85-5.72-6.45-7.36-6.04-3.14-13.09-2.17-19.28.39-9.96,4.34-18.3,11.92-25.15,20.37-3.58,4.72-8.24,10.61-5.09,16.7,1.39,2.7,3.85,5.78,7.36,5.36,2.68-.14,3.76-3.24,2.79-5.51.58,1.12.77,2.5.34,3.77-.93,2.77-4.65,3.25-6.99,2.01-1.28-.59-2.45-1.71-3.28-2.57-6.42-6.83-2.28-15.21,2.1-21.74,8.51-12.47,21.75-25.15,37.61-26.39,10.18-.4,16.17,3.6,20.99,11.96,13.69,24.2,19.14,60.77,20.55,88.39h0Z"/><path class="cls-1" d="m26.7,191.42c3.07,2.85,5.62,7.66,2.98,11.7-1.65,2.28-4.22,3.51-6.95,3.42-5.68-.45-7.88-7.23-13.6-6.18-3.22.57-6.31,2.54-9.13,4.47,2.1-5.68,8.2-10.98,14.66-9.1,3.72.96,5.71,3.81,8.66,5.2,5.27.21,3.74-5.91,3.38-9.5h0Z"/><path class="cls-1" d="m45.72,184.75c5.61,5.1,5.52,14.14-3.24,15.35-5.74.76-9.32-4.66-12.39-8.21-.43-.44-.77-.66-1.24-.96-.72-.48-1.22-.78-2.07-.44-.75.54-.6,1.82-.57,2.86.06.81.28,1.92.18,2.73-1.55-2.82-3.71-5.83-.38-8.81,2.26-1.78,5.45-1.18,7.5.45,3.13,2.13,4.91,6.49,8.58,6.88,5.22.22,4.17-6.09,3.63-9.85h0Z"/><path class="cls-1" d="m29.02,217.29c5.17,1.45,13.08,2.63,18.43,3.76,5.48.99,13.04,2.52,18.44,3.42,6.1,1.12,12.25,2.12,18.38,2.9,4,.41,8.25,1.06,11.9.24-.05.04-.14.11-.28.3-.12.17-.14.26-.13.25.15-.66.14-1.54.09-2.39-1.65-14.86-10.04-39.18-19.59-50.68-4.03-4.94-9.89-7.83-15.54-3.52,3.53-3.97,9.19-4.22,13.53-1.33,11.15,7.32,18.37,23.98,22.79,36.21,2.12,6.21,3.93,12.24,4.56,18.92.08,1.5.18,2.99-.33,4.62-1.96,5.9-13.15,3.4-17.75,3.01-12.53-1.88-24.76-5.18-36.83-8.96-5.94-2.04-12.11-3.8-17.67-6.75h0Z"/></g><g id="_Répétition_radiale_-2"><path class="cls-5" d="m86.53,0l1,.35c38.02,13.33,73.52,32.96,105.03,58.06l.51.4h0c-30.91,26.73-66.15,47.98-104.21,62.86h0s-.12-.64-.12-.64c-7.51-39.58-8.31-80.14-2.37-119.99L86.53,0Z"/><path class="cls-1" d="m88.83,121.51c19.7-11.05,39.12-22.27,57.05-35.92,5.81-4.58,11.61-9.28,16.25-14.73,2.06-2.47,4.25-5.43,5.01-8.41,1.12-6.71-1.98-13.12-6.33-18.21-7.2-8.13-16.99-13.72-27.14-17.63-5.6-1.95-12.64-4.56-17.45.32-2.14,2.15-4.3,5.45-2.82,8.65.96,2.51,4.25,2.58,6.11.95-.88.9-2.14,1.51-3.48,1.49-2.93-.03-4.53-3.42-4.08-6.03.17-1.4.87-2.85,1.43-3.91,4.51-8.22,13.76-6.87,21.33-4.72,14.49,4.24,30.64,12.91,36.72,27.61,3.53,9.56,1.57,16.49-4.89,23.66-18.79,20.5-51.89,36.98-77.71,46.86h0Z"/><path class="cls-1" d="m107.54,21.25c-1.76,3.8-5.55,7.72-10.2,6.45-2.67-.86-4.64-2.92-5.4-5.55-1.33-5.54,4.44-9.73,1.67-14.85-1.54-2.88-4.36-5.22-7.07-7.3,6.05.24,12.98,4.41,13.19,11.13.24,3.84-1.86,6.61-2.27,9.84,1.42,5.08,6.78,1.73,10.08.28h0Z"/><path class="cls-1" d="m119.76,37.27c-3.12,6.91-11.74,9.61-15.6,1.66-2.5-5.22,1.55-10.31,3.98-14.32.28-.54.39-.93.53-1.48.23-.83.37-1.4-.22-2.1-.75-.54-1.92,0-2.9.34-.76.3-1.74.86-2.54,1.02,2.2-2.35,4.39-5.33,8.26-3.09,2.39,1.6,2.8,4.82,1.89,7.28-1.06,3.63-4.66,6.67-3.89,10.28,1.4,5.04,7.09,2.08,10.48.41h0Z"/><path class="cls-1" d="m83.65,31.45c.21,5.36,1.54,13.25,2.12,18.69.75,5.51,1.64,13.18,2.45,18.6.82,6.14,1.77,12.3,2.92,18.37.85,3.93,1.54,8.18,3.45,11.39-.05-.03-.15-.1-.37-.18-.2-.06-.29-.05-.27-.05.67-.06,1.51-.34,2.3-.65,13.62-6.16,34.16-21.66,42.15-34.29,3.45-5.36,4.39-11.83-1.45-15.87,4.87,2.13,6.85,7.44,5.44,12.45-3.52,12.86-17.13,24.89-27.4,32.87-5.25,3.94-10.43,7.52-16.59,10.19-1.4.54-2.79,1.09-4.5,1.11-6.22-.04-7.3-11.46-8.35-15.95-2.09-12.5-2.73-25.15-2.86-37.8.11-6.28-.13-12.69.96-18.89h0Z"/></g><g id="_Répétition_radiale_-3"><path class="cls-4" d="m308.08,19l-.02,1.06c-.93,40.28-8.62,80.11-22.77,117.83l-.23.61h0c-34.97-21.14-66.08-48.08-91.98-79.68h0s.57-.31.57-.31c35.32-19.38,73.65-32.67,113.38-39.33l1.05-.18Z"/><path class="cls-1" d="m193.22,58.74c16.6,15.32,33.27,30.32,51.79,43.16,6.15,4.11,12.42,8.18,19.03,10.9,2.98,1.2,6.48,2.37,9.54,2.17,6.73-1.01,11.87-5.94,15.37-11.64,5.51-9.36,7.8-20.4,8.38-31.26.12-5.92.43-13.43-5.7-16.5-2.71-1.37-6.51-2.41-9.1,0-2.09,1.69-1.14,4.84.98,6.1-1.13-.56-2.1-1.57-2.49-2.85-.87-2.79,1.85-5.37,4.47-5.74,1.39-.27,2.98-.05,4.17.15,9.21,1.75,10.79,10.96,11.08,18.83.44,15.09-2.81,33.13-14.92,43.46-8,6.31-15.2,6.59-24.01,2.67-25.3-11.53-51.21-37.92-68.58-59.43h0Z"/><path class="cls-1" d="m294.36,45.55c-4.16-.5-9.05-2.89-9.28-7.71,0-2.81,1.34-5.32,3.61-6.85,4.85-2.98,10.62,1.21,14.64-3,2.27-2.35,3.61-5.76,4.76-8.98,1.64,5.83-.18,13.7-6.51,15.98-3.58,1.41-6.86.27-10.06.89-4.39,2.92.45,6.98,2.85,9.67h0Z"/><path class="cls-1" d="m282.9,62.12c-7.53-.83-12.77-8.2-6.4-14.32,4.2-3.99,10.28-1.71,14.85-.64.61.1,1.01.08,1.57.05.86-.04,1.45-.09,1.93-.86.29-.88-.59-1.83-1.22-2.65-.52-.63-1.35-1.39-1.75-2.1,2.91,1.37,6.42,2.53,5.49,6.9-.79,2.77-3.72,4.16-6.34,4.05-3.78.11-7.79-2.37-10.98-.52-4.36,2.89.21,7.38,2.85,10.1h0Z"/><path class="cls-1" d="m277.28,25.98c-5.03,1.86-12.12,5.56-17.12,7.79-5.01,2.42-12.03,5.63-16.93,8.07-5.59,2.68-11.15,5.49-16.57,8.46-3.48,2.02-7.3,3.99-9.77,6.8.02-.06.05-.17.05-.41,0-.21-.04-.29-.04-.28.27.62.79,1.33,1.33,1.98,10.07,11.05,31.15,25.8,45.63,29.49,6.16,1.63,12.61.52,14.64-6.28-.52,5.29-4.96,8.81-10.16,9.03-13.32.63-28.96-8.6-39.73-15.9-5.37-3.78-10.38-7.6-14.82-12.63-.94-1.16-1.9-2.32-2.45-3.93-1.88-5.93,8.64-10.48,12.59-12.87,11.24-5.85,23.08-10.37,35.06-14.4,6.01-1.84,12.03-4.04,18.26-4.92h0Z"/></g><g id="_Répétition_radiale_-4"><path class="cls-6" d="m358.47,235.58l-1.02.3c-38.59,11.56-78.85,16.55-119.1,14.76l-.65-.03h0c9.3-39.79,25.31-77.7,47.36-112.1h0s.47.44.47.44c29.34,27.61,53.83,59.95,72.44,95.68l.49.94Z"/><path class="cls-1" d="m285.18,138.62c-9.44,20.52-18.56,41.01-25.04,62.59-2.01,7.12-3.94,14.34-4.49,21.46-.22,3.21-.25,6.89.89,9.75,3.04,6.09,9.32,9.45,15.82,11.02,10.61,2.35,21.81,1.11,32.32-1.69,5.67-1.72,12.9-3.74,13.93-10.52.46-3,.28-6.94-2.81-8.66-2.25-1.46-4.95.41-5.5,2.82.19-1.25.84-2.48,1.94-3.25,2.39-1.69,5.68.1,6.84,2.48.69,1.23.97,2.82,1.14,4.01,1.18,9.3-7.09,13.65-14.48,16.35-14.22,5.08-32.38,7.56-45.94-.76-8.47-5.66-10.96-12.42-9.96-22.01,3.15-27.63,20.24-60.42,35.32-83.59h0Z"/><path class="cls-1" d="m328.98,230.73c-.81-4.11-.05-9.5,4.46-11.21,2.67-.87,5.48-.37,7.63,1.32,4.33,3.7,2.13,10.48,7.37,12.99,2.94,1.43,6.59,1.66,10.01,1.75-5.04,3.36-13.09,4.06-17.21-1.25-2.45-2.97-2.38-6.44-3.95-9.29-4.14-3.27-6.5,2.58-8.32,5.7h0Z"/><path class="cls-1" d="m309.68,224.95c-1.54-7.42,3.85-14.68,11.65-10.51,5.09,2.76,4.81,9.25,5.2,13.93.09.61.23.98.44,1.51.3.81.53,1.35,1.41,1.57.92,0,1.55-1.12,2.14-1.98.43-.69.9-1.72,1.45-2.31-.4,3.19-.42,6.89-4.87,7.35-2.88.11-5.1-2.25-5.81-4.78-1.28-3.56-.15-8.14-2.9-10.6-4.1-3.25-6.96,2.48-8.72,5.83h0Z"/><path class="cls-1" d="m342.31,208.44c-3.32-4.21-9.03-9.81-12.7-13.87-3.85-4.02-9.07-9.7-12.91-13.6-4.28-4.49-8.67-8.91-13.16-13.15-3-2.69-6.05-5.71-9.48-7.19.06,0,.18,0,.41-.08.2-.07.26-.13.25-.12-.51.44-1.02,1.16-1.48,1.88-7.39,12.99-14.91,37.6-13.94,52.51.36,6.36,3.4,12.15,10.5,11.98-5.2,1.14-9.92-1.99-11.72-6.88-4.71-12.47-.77-30.2,2.85-42.7,1.94-6.27,4.02-12.22,7.43-17.99.82-1.26,1.62-2.52,2.98-3.54,5.06-3.62,12.64,4.98,16.13,8,9.04,8.88,16.99,18.74,24.53,28.9,3.61,5.15,7.56,10.19,10.32,15.84h0Z"/></g><path class="cls-2" d="m220.07,138.86c-5.97-6.53-21.16-5.82-35.61,3.48-13.55-10.61-28.62-12.71-35.17-6.76-8.08,7.34-1.85,25.7,3.32,34.97,9.03,16.21,27.79,28,29.2,28.88v.03c1.39-.69,21.24-10.72,31.75-26.08,5.99-8.76,13.89-26.47,6.52-34.52Z"/><path class="cls-1" d="m208.67,142.64c-5.66-.54-11.26.28-16.05,2.8-1.23.59-2.62,1.35-4.33,1.67-3.34.67-6.83-.52-9.38-2.67-6.62-5.79-20.41-12.26-27.3-4.08-2.93,4.81-1.03,11.62.21,16.97,4.51,17.18,12.53,29.7,27.08,40.21-10.59-4.54-19.79-12.55-25.62-22.61-4.27-7.8-7.47-15.93-8.77-24.78-.44-3.73-.49-8.42,1.64-12.12,3.05-5.28,9.91-7.77,15.62-7.03,7.67.85,14.61,4.75,19.89,10.14,1.67,1.67,3.74,2.73,6.15,2.55,1.1-.05,2.31-.48,3.69-.96,5.5-1.95,11.7-1.97,17.16-.09h0Z"/><path class="cls-1" d="m188.46,141.23c19.21-10.28,42.64-4,31.29,21.59-2.38,5.45-5.43,10.37-9.12,15.03-8.55,10.39-26.18,25.82-38.68,12.69-6.16-6.67-7.67-17.29-2.52-24.88-.83,2.72-1.17,5.5-.99,8.19.37,5.15,2.62,10.39,6.33,13.93,10.2,9.71,24.8-5.72,31.3-13.55,3.26-4.22,6.2-8.92,8.47-13.72,1.94-4.35,3.98-9.71,2.44-14.2-4.04-9.06-20.38-7.25-28.52-5.07h0Z"/></g></svg>